<svg width="75" height="75" viewBox="0 0 75 75" fill="none" xmlns="http://www.w3.org/2000/svg">
<path d="M73.7407 47.1724C74.5622 44.0866 75 40.8445 75 37.5C75 37.22 74.9969 36.9407 74.9908 36.6621L70.4715 35.5085C70.465 35.5069 70.4585 35.5053 70.452 35.5036L65.1577 34.1522C64.0196 33.8617 63.2187 32.8428 63.2051 31.6683L63.1614 27.8699L63.161 27.8552L63.1608 27.8416C63.1607 27.8342 63.1608 27.8269 63.1608 27.8195L63.1077 23.2085C63.1072 23.1915 63.1069 23.1743 63.1071 23.1572L63.0734 20.2251C63.0539 18.5357 64.6288 17.2787 66.2719 17.6722L69.8549 18.5303C63.34 7.44279 51.2885 0 37.4986 0C21.2882 0 7.48005 10.2849 2.244 24.685C4.0656 24.2027 5.95928 23.9934 7.86302 24.0732C11.6421 24.2316 15.2863 25.522 18.3228 27.777C19.3088 28.5093 20.216 29.3322 21.0341 30.2321L28.9345 24.1364L29.0083 21.8952C29.009 21.876 29.01 21.8569 29.0116 21.838L22.9886 20.4476C21.8463 20.1838 21.134 19.0441 21.3977 17.9018L22.2217 14.3332C22.4854 13.1909 23.6252 12.4787 24.7675 12.7425L34.1788 14.9151C37.6131 15.708 39.7544 19.1347 38.9615 22.5688C38.7719 23.3901 37.9524 23.9021 37.1312 23.7125L31.3523 22.3784L31.3056 23.7947L58.893 30.0146L58.3263 22.347C58.3205 22.2688 58.2762 22.1986 58.2082 22.1596L56.8234 21.3674C56.0768 20.9403 55.5904 20.1709 55.5248 19.3132L55.272 16.0041C55.264 15.8998 55.1883 15.8132 55.086 15.7914L50.6694 14.851C50.0324 14.7153 49.6259 14.089 49.7616 13.452C49.8972 12.815 50.5236 12.4085 51.1606 12.5442L55.5772 13.4846C56.7029 13.7243 57.5361 14.6769 57.6237 15.8244L57.8766 19.1335C57.8825 19.2115 57.9268 19.2814 57.9946 19.3203L59.3794 20.1125C60.128 20.5407 60.6149 21.313 60.6784 22.1731L61.724 36.3209C63.5272 36.3144 65.3233 36.5664 67.057 37.0702C67.8075 37.2883 68.178 38.1091 67.9043 38.8411C67.6306 39.5732 66.8164 39.9382 66.063 39.7301C64.7168 39.3582 63.3283 39.1639 61.9332 39.1516L62.0554 40.8043C66.9246 40.8917 71.2033 43.398 73.7407 47.1724Z" fill="url(#paint0_linear_306_1680)"/>
<path d="M57.8223 69.0209C51.807 67.2979 47.4046 61.7574 47.4046 55.1887C47.4046 47.9531 52.7462 41.9651 59.7013 40.9527L59.5795 39.3043C57.2082 39.6345 54.9391 40.4918 52.9398 41.8151C50.8292 43.212 49.0792 45.0885 47.8329 47.2913C46.8194 49.0826 46.1623 51.0483 45.8928 53.0799C45.7901 53.8547 45.1359 54.4615 44.3551 54.4274C43.5742 54.3933 42.9634 53.7316 43.0559 52.9556C43.3513 50.4776 44.136 48.0778 45.3695 45.8977C46.8358 43.3062 48.8946 41.0984 51.3776 39.455C53.7807 37.8645 56.5151 36.8462 59.3705 36.4768L59.1428 33.3959L34.0366 46.594C34.141 47.0044 34.1966 47.4344 34.1966 47.8774C34.1966 50.743 31.8734 53.0661 29.0077 53.0661C28.3641 53.0661 27.748 52.9489 27.1793 52.7348L26.1631 54.4521L28.3575 54.8635C28.9977 54.9836 29.4193 55.5998 29.2993 56.2399C29.1792 56.88 28.563 57.3017 27.9229 57.1816L24.1 56.4649C24.082 56.4619 24.0641 56.4586 24.0462 56.4548L20.9683 55.8777C20.3282 55.7577 19.9065 55.1415 20.0265 54.5013C20.1466 53.8612 20.7628 53.4396 21.403 53.5596L23.6962 53.9896L25.2166 51.4202C24.3496 50.4928 23.8188 49.2471 23.8188 47.8774C23.8188 47.8207 23.8197 47.7643 23.8215 47.7081L20.4024 47.0024C18.6442 52.9619 13.1306 57.3113 6.60117 57.3113C6.27539 57.3113 5.95214 57.3005 5.63175 57.2792C12.2496 67.918 24.047 75 37.4986 75C44.989 75 51.9664 72.8041 57.8223 69.0209Z" fill="url(#paint1_linear_306_1680)"/>
<path d="M72.7707 50.2666C70.9461 46.2033 66.9319 43.3366 62.2301 43.1682L62.3351 44.5891C66.9346 44.821 70.7621 47.9807 71.9911 52.242C72.269 51.5928 72.5291 50.9341 72.7707 50.2666Z" fill="url(#paint2_linear_306_1680)"/>
<path d="M62.1075 65.7973C61.5741 66.2616 61.0274 66.711 60.4681 67.145C54.4477 66.4859 49.7632 61.3843 49.7632 55.1887C49.7632 49.1978 54.1432 44.2299 59.8757 43.3122L59.9804 44.7295C54.9817 45.589 51.1783 49.9447 51.1783 55.1887C51.1783 61.0502 55.9302 65.8019 61.7919 65.8019C61.8975 65.8019 62.0027 65.8004 62.1075 65.7973Z" fill="url(#paint3_linear_306_1680)"/>
<path d="M69.9783 56.258C68.6473 58.5575 67.0791 60.7026 65.3072 62.6598C64.2407 63.1624 63.0491 63.4434 61.7919 63.4434C57.2328 63.4434 53.5369 59.7476 53.5369 55.1887C53.5369 51.19 56.3802 47.8554 60.1554 47.0962L60.7718 55.4366C60.8198 56.0861 61.3852 56.5737 62.0347 56.5257C62.6843 56.4777 63.1719 55.9123 63.1239 55.2628L62.5107 46.9648C66.7332 47.329 70.047 50.8719 70.047 55.1887C70.047 55.5511 70.0236 55.908 69.9783 56.258Z" fill="url(#paint4_linear_306_1680)"/>
<path d="M0.304864 32.6737C0.226179 33.286 0.162266 33.903 0.113493 34.5243C1.90739 33.1369 4.15786 32.3113 6.60117 32.3113C9.57726 32.3113 12.2673 33.5362 14.1945 35.5093L15.3216 34.6396C13.1301 32.3338 10.0335 30.8962 6.60117 30.8962C4.29281 30.8962 2.13632 31.5464 0.304864 32.6737Z" fill="url(#paint5_linear_306_1680)"/>
<path d="M0 37.9671C1.50627 35.9647 3.90249 34.6698 6.60117 34.6698C8.81653 34.6698 10.8281 35.5424 12.3108 36.9627L8.47434 39.9228C7.93112 39.5831 7.28907 39.3868 6.60117 39.3868C4.64726 39.3868 3.0633 40.9707 3.0633 42.9245C3.0633 44.8784 4.64726 46.4623 6.60117 46.4623C7.87623 46.4623 8.99375 45.7878 9.61636 44.7761L14.3582 45.7548C13.203 48.9198 10.166 51.1793 6.60117 51.1793C4.92776 51.1793 3.37064 50.6814 2.0699 49.8256C0.775435 46.1047 0.0506582 42.117 0 37.9671Z" fill="url(#paint6_linear_306_1680)"/>
<path d="M3.3551 53.0322C3.61297 53.5981 3.8845 54.1565 4.16926 54.7069C4.95469 54.8681 5.76804 54.9528 6.60117 54.9528C11.9907 54.9528 16.5524 51.4084 18.0822 46.5235L16.688 46.2357C15.2969 50.4758 11.3066 53.5377 6.60117 53.5377C5.46899 53.5377 4.37822 53.3605 3.3551 53.0322Z" fill="url(#paint7_linear_306_1680)"/>
<path d="M1.21207 27.996C1.06021 28.5773 0.921951 29.1642 0.797657 29.7562C2.57278 28.9728 4.53617 28.5377 6.60117 28.5377C10.7938 28.5377 14.5676 30.3311 17.1973 33.1925L18.7847 31.9677C18.1303 31.2682 17.4116 30.6256 16.6353 30.0492C14.0543 28.1324 10.9567 27.0355 7.7445 26.9009C5.50399 26.807 3.27986 27.1842 1.21207 27.996Z" fill="url(#paint8_linear_306_1680)"/>
<path d="M71.3344 21.3098C71.4983 21.6517 71.6572 21.9964 71.8109 22.3438L71.5533 23.7161L65.4553 22.2382L65.4318 20.198C65.43 20.0444 65.5732 19.9301 65.7226 19.9659L71.3344 21.3098Z" fill="url(#paint9_linear_306_1680)"/>
<path d="M73.4039 26.6419C73.623 27.3672 73.8206 28.1018 73.9962 28.8449L73.0321 28.6227L73.4039 26.6419Z" fill="url(#paint10_linear_306_1680)"/>
<path d="M74.5034 31.382L72.5966 30.9427L72.1176 33.4946L74.8562 34.1936C74.7734 33.2459 74.6554 32.3083 74.5034 31.382Z" fill="url(#paint11_linear_306_1680)"/>
<path d="M18.6462 35.0534L20.2653 33.8042C21.0824 34.9859 21.7414 36.2785 22.2191 37.6503C23.0569 40.056 23.3065 42.6173 22.96 45.122L20.8809 44.6929C20.9519 44.1134 20.9885 43.5232 20.9885 42.9245C20.9885 40.0193 20.1273 37.3151 18.6462 35.0534Z" fill="url(#paint12_linear_306_1680)"/>
<path d="M24.892 36.7195C25.6769 38.9733 26.0229 41.343 25.9255 43.7029C26.6137 43.1939 27.4323 42.8511 28.3219 42.7336L28.8338 27.193L22.5087 32.0732C23.5092 33.4962 24.3135 35.0585 24.892 36.7195Z" fill="url(#paint13_linear_306_1680)"/>
<path d="M29.4689 45.0846L28.1398 47.3203C27.8069 47.8802 27.991 48.6038 28.5508 48.9366C29.1107 49.2694 29.8343 49.0853 30.1672 48.5255L31.4266 46.4071C31.6876 46.8356 31.838 47.3389 31.838 47.8774C31.838 49.4404 30.5708 50.7076 29.0077 50.7076C27.4446 50.7076 26.1774 49.4404 26.1774 47.8774C26.1774 46.3143 27.4445 45.0472 29.0077 45.0472C29.1647 45.0472 29.3188 45.06 29.4689 45.0846Z" fill="url(#paint14_linear_306_1680)"/>
<path d="M30.7211 42.9782C30.7055 42.9728 30.6899 42.9674 30.6743 42.9621L30.7719 39.9976L32.3205 40.288L30.7211 42.9782Z" fill="url(#paint15_linear_306_1680)"/>
<path d="M32.9483 44.5015C32.8725 44.4132 32.7938 44.3274 32.7123 44.2443L34.7892 40.7509L36.8855 41.1439C37.5256 41.2639 38.1419 40.8423 38.2619 40.2022C38.3819 39.562 37.9603 38.9458 37.3201 38.8258L34.4409 38.286C34.4325 38.2842 34.4241 38.2825 34.4157 38.2809C34.4061 38.2791 34.3966 38.2774 34.3871 38.2759L30.8505 37.6128L31.2266 26.1946L56.8034 31.9612L32.9483 44.5015Z" fill="url(#paint16_linear_306_1680)"/>
<path d="M15.6459 37.3684L16.772 36.4996C17.9487 38.3583 18.6299 40.5619 18.6299 42.9245C18.6299 43.3602 18.6068 43.7905 18.5616 44.2142L17.1681 43.9266C17.199 43.5967 17.2148 43.2625 17.2148 42.9245C17.2148 40.8875 16.6409 38.9845 15.6459 37.3684Z" fill="url(#paint17_linear_306_1680)"/>
<path d="M9.94526 41.7668L13.7648 38.8198C14.4592 40.0288 14.8562 41.4303 14.8562 42.9245C14.8562 43.0997 14.8507 43.2736 14.84 43.4461L10.1101 42.4698C10.0789 42.2269 10.0231 41.9917 9.94526 41.7668Z" fill="url(#paint18_linear_306_1680)"/>
<path d="M65.5089 26.8893L65.4833 24.6718L71.1176 26.0372L70.7318 28.0927L65.5089 26.8893Z" fill="url(#paint19_linear_306_1680)"/>
<path d="M65.5368 29.316L70.2963 30.4127L69.8275 32.91L65.7411 31.867C65.6376 31.8406 65.5648 31.7479 65.5636 31.6412L65.5368 29.316Z" fill="url(#paint20_linear_306_1680)"/>
<path d="M23.7489 18.2026L24.4667 15.0935L33.6482 17.2132C35.5352 17.6488 36.803 19.3458 36.7666 21.2078L23.7489 18.2026Z" fill="url(#paint21_linear_306_1680)"/>
<path d="M5.42188 42.9245C5.42188 42.2733 5.94986 41.7453 6.60117 41.7453C7.25247 41.7453 7.78046 42.2733 7.78046 42.9245C7.78046 43.5758 7.25247 44.1038 6.60117 44.1038C5.94986 44.1038 5.42188 43.5758 5.42188 42.9245Z" fill="url(#paint22_linear_306_1680)"/>
<defs>
<linearGradient id="paint0_linear_306_1680" x1="12.4976" y1="10.1415" x2="57.7802" y2="68.8696" gradientUnits="userSpaceOnUse">
<stop stop-color="#9225EB"/>
<stop offset="1" stop-color="#6807F7"/>
</linearGradient>
<linearGradient id="paint1_linear_306_1680" x1="12.4976" y1="10.1415" x2="57.7802" y2="68.8696" gradientUnits="userSpaceOnUse">
<stop stop-color="#9225EB"/>
<stop offset="1" stop-color="#6807F7"/>
</linearGradient>
<linearGradient id="paint2_linear_306_1680" x1="12.4976" y1="10.1415" x2="57.7802" y2="68.8696" gradientUnits="userSpaceOnUse">
<stop stop-color="#9225EB"/>
<stop offset="1" stop-color="#6807F7"/>
</linearGradient>
<linearGradient id="paint3_linear_306_1680" x1="12.4976" y1="10.1415" x2="57.7802" y2="68.8696" gradientUnits="userSpaceOnUse">
<stop stop-color="#9225EB"/>
<stop offset="1" stop-color="#6807F7"/>
</linearGradient>
<linearGradient id="paint4_linear_306_1680" x1="12.4976" y1="10.1415" x2="57.7802" y2="68.8696" gradientUnits="userSpaceOnUse">
<stop stop-color="#9225EB"/>
<stop offset="1" stop-color="#6807F7"/>
</linearGradient>
<linearGradient id="paint5_linear_306_1680" x1="12.4976" y1="10.1415" x2="57.7802" y2="68.8696" gradientUnits="userSpaceOnUse">
<stop stop-color="#9225EB"/>
<stop offset="1" stop-color="#6807F7"/>
</linearGradient>
<linearGradient id="paint6_linear_306_1680" x1="12.4976" y1="10.1415" x2="57.7802" y2="68.8696" gradientUnits="userSpaceOnUse">
<stop stop-color="#9225EB"/>
<stop offset="1" stop-color="#6807F7"/>
</linearGradient>
<linearGradient id="paint7_linear_306_1680" x1="12.4976" y1="10.1415" x2="57.7802" y2="68.8696" gradientUnits="userSpaceOnUse">
<stop stop-color="#9225EB"/>
<stop offset="1" stop-color="#6807F7"/>
</linearGradient>
<linearGradient id="paint8_linear_306_1680" x1="12.4976" y1="10.1415" x2="57.7802" y2="68.8696" gradientUnits="userSpaceOnUse">
<stop stop-color="#9225EB"/>
<stop offset="1" stop-color="#6807F7"/>
</linearGradient>
<linearGradient id="paint9_linear_306_1680" x1="12.4976" y1="10.1415" x2="57.7802" y2="68.8696" gradientUnits="userSpaceOnUse">
<stop stop-color="#9225EB"/>
<stop offset="1" stop-color="#6807F7"/>
</linearGradient>
<linearGradient id="paint10_linear_306_1680" x1="12.4976" y1="10.1415" x2="57.7802" y2="68.8696" gradientUnits="userSpaceOnUse">
<stop stop-color="#9225EB"/>
<stop offset="1" stop-color="#6807F7"/>
</linearGradient>
<linearGradient id="paint11_linear_306_1680" x1="12.4976" y1="10.1415" x2="57.7802" y2="68.8696" gradientUnits="userSpaceOnUse">
<stop stop-color="#9225EB"/>
<stop offset="1" stop-color="#6807F7"/>
</linearGradient>
<linearGradient id="paint12_linear_306_1680" x1="12.4976" y1="10.1415" x2="57.7802" y2="68.8696" gradientUnits="userSpaceOnUse">
<stop stop-color="#9225EB"/>
<stop offset="1" stop-color="#6807F7"/>
</linearGradient>
<linearGradient id="paint13_linear_306_1680" x1="12.4976" y1="10.1415" x2="57.7802" y2="68.8696" gradientUnits="userSpaceOnUse">
<stop stop-color="#9225EB"/>
<stop offset="1" stop-color="#6807F7"/>
</linearGradient>
<linearGradient id="paint14_linear_306_1680" x1="12.4976" y1="10.1415" x2="57.7802" y2="68.8696" gradientUnits="userSpaceOnUse">
<stop stop-color="#9225EB"/>
<stop offset="1" stop-color="#6807F7"/>
</linearGradient>
<linearGradient id="paint15_linear_306_1680" x1="12.4976" y1="10.1415" x2="57.7802" y2="68.8696" gradientUnits="userSpaceOnUse">
<stop stop-color="#9225EB"/>
<stop offset="1" stop-color="#6807F7"/>
</linearGradient>
<linearGradient id="paint16_linear_306_1680" x1="12.4976" y1="10.1415" x2="57.7802" y2="68.8696" gradientUnits="userSpaceOnUse">
<stop stop-color="#9225EB"/>
<stop offset="1" stop-color="#6807F7"/>
</linearGradient>
<linearGradient id="paint17_linear_306_1680" x1="12.4976" y1="10.1415" x2="57.7802" y2="68.8696" gradientUnits="userSpaceOnUse">
<stop stop-color="#9225EB"/>
<stop offset="1" stop-color="#6807F7"/>
</linearGradient>
<linearGradient id="paint18_linear_306_1680" x1="12.4976" y1="10.1415" x2="57.7802" y2="68.8696" gradientUnits="userSpaceOnUse">
<stop stop-color="#9225EB"/>
<stop offset="1" stop-color="#6807F7"/>
</linearGradient>
<linearGradient id="paint19_linear_306_1680" x1="12.4976" y1="10.1415" x2="57.7802" y2="68.8696" gradientUnits="userSpaceOnUse">
<stop stop-color="#9225EB"/>
<stop offset="1" stop-color="#6807F7"/>
</linearGradient>
<linearGradient id="paint20_linear_306_1680" x1="12.4976" y1="10.1415" x2="57.7802" y2="68.8696" gradientUnits="userSpaceOnUse">
<stop stop-color="#9225EB"/>
<stop offset="1" stop-color="#6807F7"/>
</linearGradient>
<linearGradient id="paint21_linear_306_1680" x1="12.4976" y1="10.1415" x2="57.7802" y2="68.8696" gradientUnits="userSpaceOnUse">
<stop stop-color="#9225EB"/>
<stop offset="1" stop-color="#6807F7"/>
</linearGradient>
<linearGradient id="paint22_linear_306_1680" x1="12.4976" y1="10.1415" x2="57.7802" y2="68.8696" gradientUnits="userSpaceOnUse">
<stop stop-color="#9225EB"/>
<stop offset="1" stop-color="#6807F7"/>
</linearGradient>
</defs>
</svg>
